subject01_walk1_RRA_states
nRows=5
nColumns=47

# SIMM Motion File Header:
name subject01_walk1_RRA_states
datacolumns 47
datarows 5
otherdata 1
range 0.86900000000000033000 0.87100000000000033000
endheader
time	pelvis_tx	pelvis_ty	pelvis_tz	pelvis_tilt	pelvis_list	pelvis_rotation	hip_flexion_r	hip_adduction_r	hip_rotation_r	knee_angle_r	ankle_angle_r	subtalar_angle_r	mtp_angle_r	hip_flexion_l	hip_adduction_l	hip_rotation_l	knee_angle_l	ankle_angle_l	subtalar_angle_l	mtp_angle_l	lumbar_extension	lumbar_bending	lumbar_rotation	pelvis_tx_u	pelvis_ty_u	pelvis_tz_u	pelvis_tilt_u	pelvis_list_u	pelvis_rotation_u	hip_flexion_r_u	hip_adduction_r_u	hip_rotation_r_u	knee_angle_r_u	ankle_angle_r_u	subtalar_angle_r_u	mtp_angle_r_u	hip_flexion_l_u	hip_adduction_l_u	hip_rotation_l_u	knee_angle_l_u	ankle_angle_l_u	subtalar_angle_l_u	mtp_angle_l_u	lumbar_extension_u	lumbar_bending_u	lumbar_rotation_u
      0.86900000000000033000	      0.61223421251647370000	      1.01972022587047360000	      0.03066988813995615400	      4.96242303807743390000	     -1.85720556246624710000	      3.26677422482180010000	      9.98117397308680050000	      2.32378361635726010000	     -7.12681310776829410000	    -20.50071017764678400000	      5.36985226249079960000	     -0.00483344044515550670	      0.04314702965122183700	      4.96161175622850160000	     -7.13482643029331690000	     -4.21318588656119710000	    -66.93477718556786700000	     -5.87616055664775240000	     -0.00089447815244100772	      0.03297285506179416900	    -15.36911925888382600000	      5.02792173422469710000	     -3.67821629195601750000	     -0.02926123477565948200	      0.18678512860089597000	      0.19150664627562794000	      5.23903592204297030000	     -1.68186772610772590000	    -11.72902232182606100000	   -108.29106710787472000000	     24.24170203460228400000	     13.95935193814077900000	     74.09187839951239600000	     22.12607998482025100000	      0.61077225896545162000	     -0.83641455621937411000	    143.10479055916267000000	    -16.37944452284322600000	    -20.53080312064324900000	   -112.65269315848489000000	     75.47361534842340800000	     -0.02781847498909504100	      0.00010308321748408531	     -4.10262176548004830000	     -6.24320234841589980000	     37.89693740514218200000
      0.86950000000000027000	      0.61221949018088373000	      1.01981360581400060000	      0.03076548803498331500	      4.96503547388218800000	     -1.85795728436975290000	      3.26087323792918000000	      9.92701923478859700000	      2.33579787404129440000	     -7.11976281128144080000	    -20.46361122586968400000	      5.38087565005611430000	     -0.00452628420237460950	      0.04272709324576765000	      5.03306934366958640000	     -7.14279400818087670000	     -4.22330664011984600000	    -66.99068238117335700000	     -5.83822856430004930000	     -0.00090838234875320904	      0.03297248055566221600	    -15.37117529307254500000	      5.02470050565675570000	     -3.65926375080322330000	     -0.02962819581708884100	      0.18673318589901508000	      0.19089252647704166000	      5.21061598562546640000	     -1.32516571390132660000	    -11.87496976281707400000	   -108.32759999221477000000	     23.81534869632712800000	     14.24177685522444700000	     74.30335886481213900000	     21.96791589123387900000	      0.61774642070723140000	     -0.84301469487616931000	    142.72593187132750000000	    -15.49094373913376400000	    -19.95260887242587000000	   -110.96875479349259000000	     76.25157977266513900000	     -0.02778579915579174100	     -0.00160810286538139340	     -4.12144212249981120000	     -6.64145470619272160000	     37.91315027374555100000
      0.87000000000000033000	      0.61220458422441448000	      1.01990695759618540000	      0.03086078026577193700	      4.96763355977741750000	     -1.85853087936413800000	      3.25489920580793910000	      9.87284667114463050000	      2.34759899144950700000	     -7.11257136565375260000	    -20.42640741435453600000	      5.39182082808798930000	     -0.00421572747963219750	      0.04230399894982982100	      5.10433806362031190000	     -7.15031745825301450000	     -4.23313889260676040000	    -67.04574660371895300000	     -5.79991176290932490000	     -0.00092226331388177787	      0.03297124961564579200	    -15.37324062586333400000	      5.02128054167573710000	     -3.64030321263941660000	     -0.02999573232226594000	      0.18667248092975600000	      0.19027600057995328000	      5.18163060787026010000	     -0.96936936417834929000	    -12.02121149536873000000	   -108.36234716027428000000	     23.38915075759381100000	     14.52399021746149900000	     74.51127333500939200000	     21.81362431463201500000	      0.62457237813888355000	     -0.84966312593647031000	    142.34932644522280000000	    -14.60294683495400600000	    -19.37679713994603500000	   -109.28879840751529000000	     77.01282688075689000000	     -0.02775007835914358700	     -0.00330338951523860730	     -4.13981162953934060000	     -7.03813538488006520000	     37.92893584616375300000
      0.87050000000000027000	      0.61218949434580827000	      1.02000027683872440000	      0.03095576365562974900	      4.97021701104017220000	     -1.85892681798413210000	      3.24885197799108560000	      9.81865719163927150000	      2.35918707032985030000	     -7.10523885984655660000	    -20.38910056759482700000	      5.40268998389685700000	     -0.00390188421888751360	      0.04187730186075107300	      5.17541904876948600000	     -7.15739706873905580000	     -4.24268384760870010000	    -67.09997184955182100000	     -5.76121852501761640000	     -0.00093612981042941938	      0.03296917988920296200	    -15.37531503053288500000	      5.01766264419897290000	     -3.62133488268836200000	     -0.03036388340999685400	      0.18660303762971850000	      0.18965719301128064000	      5.15208479100950360000	     -0.61455711228578291000	    -12.16774271393682300000	   -108.39527275024219000000	     22.96322310985331000000	     14.80596853182997700000	     74.71550473184558400000	     21.66356579728611800000	      0.63041850070198868000	     -0.85703595794657428000	    141.97499309302893000000	    -13.71563084918774100000	    -18.80344697416247600000	   -107.61286366485461000000	     77.75734728096279000000	     -0.02769945953057374700	     -0.00498236714249334670	     -4.15773612629932910000	     -7.43317373231513030000	     37.94431353268275600000
      0.87100000000000033000	      0.61217422023919565000	      1.02009355917560750000	      0.03105043708521350700	      4.97278555305879880000	     -1.85914560447943680000	      3.24273142047445970000	      9.76445169561228000000	      2.37056226185370770000	     -7.09776545018322660000	    -20.35169250599131600000	      5.41348503996173760000	     -0.00358534404019087180	      0.04144695158104800400	      5.24631343694735720000	     -7.16403321963832520000	     -4.25194275696293380000	    -67.15336014274407700000	     -5.72215720566381410000	     -0.00094996217479517784	      0.03296626986697921000	    -15.37739828889935000000	      5.01384764495010950000	     -3.60235897109953830000	     -0.03073264349113916100	      0.18652484407807435000	      0.18903614198832688000	      5.12199017320506030000	     -0.26075154445712911000	    -12.31452851569415700000	   -108.42641743379454000000	     22.53757639569440100000	     15.08762679719100100000	     74.91616505304655500000	     21.51736129756222800000	      0.63611068951937988000	     -0.86443479533567413000	    141.60294129691968000000	    -12.82909675376650900000	    -18.23260068788330200000	   -105.94098291279295000000	     78.48512640080431900000	     -0.02764599947793183700	     -0.00664567132495550580	     -4.17522209105284500000	     -7.82655119615467410000	     37.95925782039010700000
